<svg width="9" height="11" viewBox="0 0 9 11" fill="none" xmlns="http://www.w3.org/2000/svg">
<path d="M7.21877 3.35585C7.12265 3.05424 6.99339 2.78411 6.83098 2.54548C6.67189 2.30353 6.48131 2.09803 6.25925 1.929C6.03719 1.75665 5.78363 1.62573 5.4986 1.53624C5.21687 1.44675 4.90698 1.40201 4.56891 1.40201C3.99552 1.40201 3.47847 1.5495 3.01777 1.84448C2.55707 2.13946 2.19249 2.57199 1.92402 3.14207C1.65887 3.70883 1.5263 4.40319 1.5263 5.22516C1.5263 6.05045 1.66053 6.74813 1.92899 7.3182C2.19746 7.88828 2.56536 8.32081 3.03269 8.61579C3.50002 8.91077 4.03198 9.05826 4.62857 9.05826C5.18207 9.05826 5.66432 8.94557 6.0753 8.72019C6.4896 8.49481 6.80944 8.17663 7.03482 7.76565C7.26351 7.35135 7.37786 6.86413 7.37786 6.304L7.77559 6.37857H4.86223V5.11082H8.86436V6.2692C8.86436 7.12431 8.68207 7.86674 8.31749 8.49647C7.95622 9.12289 7.45575 9.60679 6.81607 9.94818C6.1797 10.2896 5.45054 10.4602 4.62857 10.4602C3.70717 10.4602 2.89845 10.2481 2.20243 9.82389C1.50972 9.39964 0.969477 8.79808 0.581693 8.0192C0.193909 7.237 1.66744e-05 6.30897 1.66744e-05 5.23511C1.66744e-05 4.42308 0.112706 3.69391 0.338085 3.04761C0.563464 2.4013 0.879988 1.85277 1.28766 1.40201C1.69864 0.947939 2.18089 0.601585 2.73439 0.362948C3.29121 0.120997 3.8994 2.18153e-05 4.55897 2.18153e-05C5.10916 2.18153e-05 5.62123 0.0812244 6.09519 0.24363C6.57246 0.406035 6.9967 0.636385 7.36791 0.934681C7.74244 1.23298 8.05234 1.58762 8.2976 1.9986C8.54287 2.40627 8.70859 2.85869 8.79476 3.35585H7.21877Z" fill="#186C43"/>
</svg>
