<svg width="35" height="34" viewBox="0 0 35 34" fill="none" xmlns="http://www.w3.org/2000/svg">
<path d="M17.5 16.2007C19.6272 16.2007 21.6672 15.3472 23.1714 13.8281C24.6755 12.309 25.5206 10.2487 25.5206 8.10033C25.5206 5.95199 24.6755 3.89164 23.1714 2.37253C21.6672 0.853425 19.6272 0 17.5 0C15.3728 0 13.3328 0.853425 11.8286 2.37253C10.3245 3.89164 9.47943 5.95199 9.47943 8.10033C9.47943 10.2487 10.3245 12.309 11.8286 13.8281C13.3328 15.3472 15.3728 16.2007 17.5 16.2007ZM17.5 19.7596C6.83614 19.7596 0 25.7028 0 28.5966V34H35V28.5966C35 25.0971 28.5282 19.7596 17.5 19.7596Z" fill="black"/>
</svg>
